<svg width="176" height="50" viewBox="0 0 176 50" fill="none" xmlns="http://www.w3.org/2000/svg">
<circle cx="62" cy="26" r="4" fill="#FFC2C7"/>
<circle cx="76" cy="26" r="4" fill="#D9D9D9"/>
<circle cx="104" cy="26" r="4" fill="#D9D9D9"/>
<circle cx="118" cy="26" r="4" fill="#D9D9D9"/>
<circle cx="90" cy="26" r="4" fill="#D9D9D9"/>
<path d="M163.707 26.7071C164.098 26.3166 164.098 25.6834 163.707 25.2929L157.343 18.9289C156.953 18.5384 156.319 18.5384 155.929 18.9289C155.538 19.3195 155.538 19.9526 155.929 20.3431L161.586 26L155.929 31.6569C155.538 32.0474 155.538 32.6805 155.929 33.0711C156.319 33.4616 156.953 33.4616 157.343 33.0711L163.707 26.7071ZM128 27H163V25H128V27Z" fill="#FFC2C7"/>
<path d="M16.2929 25.2929C15.9024 25.6834 15.9024 26.3166 16.2929 26.7071L22.6569 33.0711C23.0474 33.4616 23.6805 33.4616 24.0711 33.0711C24.4616 32.6805 24.4616 32.0474 24.0711 31.6569L18.4142 26L24.0711 20.3431C24.4616 19.9526 24.4616 19.3195 24.0711 18.9289C23.6805 18.5384 23.0474 18.5384 22.6569 18.9289L16.2929 25.2929ZM17 27H52V25H17V27Z" fill="#D9D9D9"/>
</svg>
